<?xml version="1.0" encoding="UTF-8"?>
<svg width="65px" height="43px" viewBox="0 0 65 43" version="1.1" xmlns="http://www.w3.org/2000/svg" xmlns:xlink="http://www.w3.org/1999/xlink">
    <title>Control / Button / Play</title>
    <g id="Symbols" stroke="none" stroke-width="1" fill="none" fill-rule="evenodd">
        <g id="Organisms-/-Desktop-/-News-/-News-Article-Gallery" transform="translate(-309.000000, -38.000000)">
            <g id="Control-/-Button-/-Play" transform="translate(309.000000, 27.837322)">
                <polygon id="Path-2" stroke="#FFFFFF" stroke-width="2" points="1.96875 31.828125 32.4470881 11.8125 62.9254261 31.828125 32.4470881 51.84375"></polygon>
                <path d="M38.0769913,26.3791383 L35.6424487,26.3791383 L34.8971806,24.8440981 C34.7315655,24.502978 34.3837737,24.28125 34.0028588,24.28125 L30.2930797,24.28125 C29.9121648,24.28125 29.564373,24.502978 29.3987579,24.8440981 L28.6534897,26.3791383 L26.2189472,26.3791383 C25.1424487,26.3791383 24.28125,27.2660504 24.28125,28.3576346 L24.28125,36.0669477 C24.28125,37.1585319 25.1424487,38.0625 26.2189472,38.0625 L38.0935528,38.0625 C39.1534897,38.0625 40.03125,37.1755879 40.03125,36.0669477 L40.03125,28.3576346 C40.0146885,27.2660504 39.1534897,26.3791383 38.0769913,26.3791383 Z M31.8846983,35.8575 C29.7837455,35.8575 28.0829741,34.1274231 28.0829741,31.9902692 C28.0829741,29.8531154 29.7837455,28.14 31.8846983,28.14 C33.9856511,28.14 35.6864224,29.8700769 35.6864224,32.0072308 C35.6864224,34.1443846 33.9856511,35.8575 31.8846983,35.8575 Z" id="Shape" fill="#FFFFFF" fill-rule="nonzero"></path>
            </g>
        </g>
    </g>
</svg>